# xmcd
#
# Track frame offsets:
#	150
#	2566
#	17380
#	28485
#	45419
#	62006
#	83475
#	98375
#	123561
#	139407
#	167573
#
# Disc length: 2578 seconds
#
# Revision: 1
# Processed by: cddbd v1.5.2PL0 Copyright (c) Steve Scherf et al.
# Submitted via: audiograbber 1.83.01
#
DISCID=7c0a100b
DTITLE=Old Crow Medicine Show - Live At The Ryman
DYEAR=2019
DGENRE=Country
TTITLE0=Welcome To The Ryman
TTITLE1=Tell It To Me
TTITLE2=Shout Mountain Music
TTITLE3=Take Em Away
TTITLE4=Brushy Mountain Conjugal Trailer
TTITLE5=CC Rider (Feat. Lee Oskar)
TTITLE6=Sixteen Tons
TTITLE7=Methamphetamine
TTITLE8=Louisiana Woman, Mississippi Man (Feat. Margo Price)
TTITLE9=Wagon Wheel
TTITLE10=Will The Circle Be Unbroken (Feat. Charlie Worsham and Molly Tuttle)
EXTD=
EXTT0=
EXTT1=
EXTT2=
EXTT3=
EXTT4=
EXTT5=
EXTT6=
EXTT7=
EXTT8=
EXTT9=
EXTT10=
PLAYORDER=
